<svg xmlns="http://www.w3.org/2000/svg" viewbox="0 0 92 37" width="92" height="37"><defs></defs><g transform="matrix(1, -0, -0, 1, -1.2697680656088586, -1.1851867141945736)">
<g transform="matrix(1, 0, 0, 1, 0, 0)">
	<g class="artboard" transform="matrix(1, 0, 0, 1, 0, 0)">
		<path class="vector-data" d="M16.88500620672385,25.605137844258635C16.88500620672385,25.605137844258635 10.920515979241651,39.17528599509528 10.920515979241651,39.17528599509528 C10.920515979241651,39.17528599509528 1.2697680656088577,33.99195063384722 1.2697680656088577,33.99195063384722 C1.2697680656088577,33.99195063384722 1.2697680656088568,17.218325054670053 1.2697680656088568,17.218325054670053 C1.2697680656088568,17.218325054670053 10.92051597924165,12.03498969342199 10.92051597924165,12.03498969342199 C10.92051597924165,12.03498969342199 16.88500620672385,25.605137844258635 16.88500620672385,25.605137844258635 Z" fill="#2323AC" stroke="#000000" stroke-width="0" stroke-dasharray="none" stroke-dashoffset="0" stroke-linecap="butt" stroke-linejoin="miter" stroke-miterlimit="4" />
		<path class="vector-data" d="M20.097705570277423,9.478035856716783C20.097705570277423,9.478035856716783 33.33247681561226,22.886854386261504 33.33247681561226,22.886854386261504 C33.33247681561226,22.886854386261504 22.518004299207117,33.38905766838509 22.518004299207117,33.38905766838509 C22.518004299207117,33.38905766838509 9.28323305387228,19.980239138840368 9.28323305387228,19.980239138840368 C9.28323305387228,19.980239138840368 20.097705570277423,9.478035856716783 20.097705570277423,9.478035856716783 Z" fill="#D33636" stroke="#000000" stroke-width="0" stroke-dasharray="none" stroke-dashoffset="0" stroke-linecap="butt" stroke-linejoin="miter" stroke-miterlimit="4" />
		<path class="vector-data" d="M13.9134062386115,14.799270852314116C19.747632595353963,14.799270852314116 24.486779393677093,11.748250978662892 24.486779393677093,7.992228783254348 C24.486779393677093,4.236206587845803 19.747632595353963,1.1851867141945807 13.9134062386115,1.1851867141945807 C8.07917988186904,1.1851867141945807 3.340033083545908,4.236206587845803 3.340033083545908,7.992228783254348 C3.340033083545908,11.748250978662892 8.07917988186904,14.799270852314116 13.9134062386115,14.799270852314116 Z" fill="#28DDA0" stroke="#000000" stroke-width="0" stroke-dasharray="none" stroke-dashoffset="0" stroke-linecap="butt" stroke-linejoin="miter" stroke-miterlimit="4" />
		<path class="vector-data" d="M33.52991491663621,14.212720311347018C33.52991491663621,14.212720311347018 47.076270601767405,14.212720311347018 47.076270601767405,14.212720311347018 C47.076270601767405,14.212720311347018 47.076270601767405,15.313594946915531 47.076270601767405,15.313594946915531 C47.076270601767405,15.313594946915531 40.07918605366245,15.313594946915531 40.07918605366245,15.313594946915531 C40.07918605366245,15.313594946915531 40.07918605366245,20.14624800814002 40.07918605366245,20.14624800814002 C40.07918605366245,20.14624800814002 43.51242220526595,20.14624800814002 43.51242220526595,20.14624800814002 C43.51242220526595,20.14624800814002 43.51242220526595,21.265781535836815 43.51242220526595,21.265781535836815 C43.51242220526595,21.265781535836815 40.07918605366245,21.265781535836815 40.07918605366245,21.265781535836815 C40.07918605366245,21.265781535836815 40.07918605366245,27.273944801142935 40.07918605366245,27.273944801142935 C40.07918605366245,27.273944801142935 33.52991491663621,27.273944801142935 33.52991491663621,27.273944801142935 C33.52991491663621,27.273944801142935 33.52991491663621,14.212720311347018 33.52991491663621,14.212720311347018 C33.52991491663621,14.212720311347018 33.52991491663621,14.212720311347018 33.52991491663621,14.212720311347018 ZM49.585891593021046,26.378317978985503C48.13982745307936,25.38939669618667 48.13982745307936,23.35557745420416 48.13982745307936,23.35557745420416 C48.13982745307936,23.35557745420416 48.13982745307936,14.212720311347018 48.13982745307936,14.212720311347018 C48.13982745307936,14.212720311347018 55.267524246082274,14.212720311347018 55.267524246082274,14.212720311347018 C55.267524246082274,14.212720311347018 55.267524246082274,23.35557745420416 55.267524246082274,23.35557745420416 C55.267524246082274,24.68035879531203 55.85527934812309,25.28677278948113 55.85527934812309,25.28677278948113 C56.44303445016391,25.89318678365023 57.41329684083446,25.89318678365023 57.41329684083446,25.89318678365023 C59.57772832771494,25.89318678365023 59.57772832771494,23.35557745420416 59.57772832771494,23.35557745420416 C59.57772832771494,23.35557745420416 59.57772832771494,14.212720311347018 59.57772832771494,14.212720311347018 C59.57772832771494,14.212720311347018 60.67860296328344,14.212720311347018 60.67860296328344,14.212720311347018 C60.67860296328344,14.212720311347018 60.67860296328344,23.35557745420416 60.67860296328344,23.35557745420416 C60.67860296328344,24.941583285107953 60.00688284666536,25.809221769072966 60.00688284666536,25.809221769072966 C59.33516273004729,26.67686025303798 57.991722496811136,27.02204975741116 57.991722496811136,27.02204975741116 C56.648282263574984,27.367239261784334 54.4092152081814,27.367239261784334 54.4092152081814,27.367239261784334 C51.03195573296274,27.367239261784334 49.585891593021046,26.378317978985503 49.585891593021046,26.378317978985503 C49.585891593021046,26.378317978985503 49.585891593021046,26.378317978985503 49.585891593021046,26.378317978985503 ZM63.21621229272951,15.817385034379088C64.26111025191318,14.772487075195414 65.5485738087645,14.436627016886376 65.5485738087645,14.436627016886376 C66.83603736561581,14.100766958577339 68.92583328398315,14.100766958577339 68.92583328398315,14.100766958577339 C70.86635806532426,14.100766958577339 72.05119771547004,14.371320894437396 72.05119771547004,14.371320894437396 C73.2360373656158,14.641874830297455 74.00105194287528,15.51884276032661 74.00105194287528,15.51884276032661 C74.6354542752368,16.246539553329526 74.99930267173826,17.28210806644906 74.99930267173826,17.28210806644906 C75.36315106823972,18.31767657956859 75.41912774462455,19.306597862367425 75.41912774462455,19.306597862367425 C75.41912774462455,19.306597862367425 74.3555708933126,19.306597862367425 74.3555708933126,19.306597862367425 C74.28093532479949,18.46694771659483 73.95440471255458,17.580650340501535 73.95440471255458,17.580650340501535 C73.6278741003097,16.694352964408242 72.93749509156333,16.050621185982585 72.93749509156333,16.050621185982585 C72.24711608281697,15.406889407556932 71.18355923150501,15.406889407556932 71.18355923150501,15.406889407556932 C70.19463794870619,15.406889407556932 69.54157672421638,16.283857337586085 69.54157672421638,16.283857337586085 C68.981809960368,17.04887191484556 68.73924436270036,18.31767657956859 68.73924436270036,18.31767657956859 C68.515337657161,19.437210107265386 68.515337657161,20.724673664116697 68.515337657161,20.724673664116697 C68.515337657161,22.833128474612323 69.03778663675283,24.251204276361594 69.03778663675283,24.251204276361594 C69.72816564549919,26.061116812804745 71.18355923150501,26.061116812804745 71.18355923150501,26.061116812804745 C71.18355923150501,26.061116812804745 71.18355923150501,20.892603693271216 71.18355923150501,20.892603693271216 C71.18355923150501,20.892603693271216 76.89318022275867,20.892603693271216 76.89318022275867,20.892603693271216 C76.89318022275867,20.892603693271216 76.89318022275867,27.273944801142935 76.89318022275867,27.273944801142935 C74.20629975628637,27.273944801142935 70.81038138893942,27.34858036965606 70.81038138893942,27.34858036965606 C70.81038138893942,27.34858036965606 68.92583328398315,27.367239261784334 68.92583328398315,27.367239261784334 C66.87335514987237,27.367239261784334 65.5952210390852,26.96607308102632 65.5952210390852,26.96607308102632 C64.31708692829802,26.5649069002683 63.40280121401231,25.650621185982587 63.40280121401231,25.650621185982587 C61.592888677569164,23.840708649539437 61.592888677569164,20.724673664116697 61.592888677569164,20.724673664116697 C61.592888677569164,17.42204975741116 63.21621229272951,15.817385034379088 63.21621229272951,15.817385034379088 C63.21621229272951,15.817385034379088 63.21621229272951,15.817385034379088 63.21621229272951,15.817385034379088 ZM82.67743678252543,14.212720311347018C82.67743678252543,14.212720311347018 88.12583328398316,14.212720311347018 88.12583328398316,14.212720311347018 C88.12583328398316,14.212720311347018 93.91008984374993,27.273944801142935 93.91008984374993,27.273944801142935 C93.91008984374993,27.273944801142935 86.85702861926012,27.273944801142935 86.85702861926012,27.273944801142935 C86.85702861926012,27.273944801142935 84.89784494579075,22.945081827382005 84.89784494579075,22.945081827382005 C84.89784494579075,22.945081827382005 80.79288867756917,22.945081827382005 80.79288867756917,22.945081827382005 C80.79288867756917,22.945081827382005 79.11358838602396,27.273944801142935 79.11358838602396,27.273944801142935 C79.11358838602396,27.273944801142935 77.75148926065955,27.273944801142935 77.75148926065955,27.273944801142935 C77.75148926065955,27.273944801142935 82.67743678252543,14.212720311347018 82.67743678252543,14.212720311347018 C82.67743678252543,14.212720311347018 82.67743678252543,14.212720311347018 82.67743678252543,14.212720311347018 ZM84.37539596619891,21.80688940755693C84.37539596619891,21.80688940755693 82.67743678252543,18.019134305516115 82.67743678252543,18.019134305516115 C82.67743678252543,18.019134305516115 81.20338430439132,21.80688940755693 81.20338430439132,21.80688940755693 C81.20338430439132,21.80688940755693 84.37539596619891,21.80688940755693 84.37539596619891,21.80688940755693 C84.37539596619891,21.80688940755693 84.37539596619891,21.80688940755693 84.37539596619891,21.80688940755693 Z" fill="#000000" stroke="#000000" stroke-width="0" stroke-dasharray="none" stroke-dashoffset="0" stroke-linecap="butt" stroke-linejoin="miter" stroke-miterlimit="4" />
		<path class="vector-data" d="" fill="#000000" stroke="#000000" stroke-width="0" stroke-dasharray="none" stroke-dashoffset="0" stroke-linecap="butt" stroke-linejoin="miter" stroke-miterlimit="4" />
	</g>
</g></g></svg>